<svg xmlns="http://www.w3.org/2000/svg" version="1.1" xmlns:xlink="http://www.w3.org/1999/xlink" xmlns:svgjs="http://svgjs.com/svgjs" width="5900" height="286" preserveAspectRatio="none" viewBox="0 0 5900 286"><g mask="url(&quot;#SvgjsMask1074&quot;)" fill="none"><path d="M -1356.4727868456557,185 C -1187.87,164 -850.67,84 -513.4727868456556,80 C -176.27,76 -7.67,173.2 329.5272131543444,165 C 666.73,156.8 835.33,43 1172.5272131543443,39 C 1509.73,35 1678.33,140.6 2015.5272131543443,145 C 2352.73,149.4 2521.33,36.6 2858.5272131543443,61 C 3195.73,85.4 3364.33,265.2 3701.5272131543443,267 C 4038.73,268.8 4207.33,78.8 4544.527213154344,70 C 4881.73,61.2 5116.43,214.6 5387.527213154344,223 C 5658.62,231.4 5797.51,134.2 5900,112" stroke="rgba(94, 120, 49, 1)" stroke-width="2"></path><path d="M -12.44807685139449,233 C 156.15,209.8 493.35,123.2 830.5519231486055,117 C 1167.75,110.8 1336.35,213.8 1673.5519231486055,202 C 2010.75,190.2 2179.35,63.6 2516.5519231486055,58 C 2853.75,52.4 3022.35,171.2 3359.5519231486055,174 C 3696.75,176.8 3865.35,55.4 4202.551923148605,72 C 4539.75,88.6 4708.35,252.8 5045.551923148605,257 C 5382.75,261.2 5551.35,89.6 5888.551923148605,93 C 6225.75,96.4 6729.26,264.6 6731.551923148605,274 C 6733.84,283.4 6066.31,166.8 5900,140" stroke="rgba(94, 120, 49, 1)" stroke-width="2"></path><path d="M -180.19870370255308,200 C -11.6,173.4 325.6,60.8 662.8012962974469,67 C 1000,73.2 1168.6,228.2 1505.801296297447,231 C 1843,233.8 2011.6,86.6 2348.801296297447,81 C 2686,75.4 2854.6,213.6 3191.801296297447,203 C 3529,192.4 3697.6,36.8 4034.801296297447,28 C 4372,19.2 4540.6,150.2 4877.801296297447,159 C 5215,167.8 5383.6,52.2 5720.801296297447,72 C 6058,91.8 6527.96,257.2 6563.801296297447,258 C 6599.64,258.8 6032.76,112.4 5900,76" stroke="rgba(94, 120, 49, 1)" stroke-width="2"></path><path d="M -43.64697533843105,50 C 124.95,77.4 462.15,175.6 799.353024661569,187 C 1136.55,198.4 1305.15,112.2 1642.353024661569,107 C 1979.55,101.8 2148.15,161.8 2485.353024661569,161 C 2822.55,160.2 2991.15,102.6 3328.353024661569,103 C 3665.55,103.4 3834.15,179.6 4171.353024661569,163 C 4508.55,146.4 4677.15,4 5014.353024661569,20 C 5351.55,36 5520.15,241.6 5857.353024661569,243 C 6194.55,244.4 6691.82,45.4 6700.353024661569,27 C 6708.88,8.6 6060.07,126.2 5900,151" stroke="rgba(94, 120, 49, 1)" stroke-width="2"></path></g><defs><mask id="SvgjsMask1074"><rect width="5900" height="286" fill="#ffffff"></rect></mask></defs></svg>